HIERARCHY
ROOT Hips
{
    OFFSET 0.0 0.0 0.0
    CHANNELS 6 Xposition Yposition Zposition Zrotation Xrotation Yrotation
    JOINT LHipJoint
    {
        OFFSET 0.1 0.0 0.0
        CHANNELS 3 Zrotation Xrotation Yrotation
        JOINT LeftHip
        {
            OFFSET 0.08717261254787445 0.0 0.0
            CHANNELS 3 Zrotation Xrotation Yrotation
            JOINT LeftKnee
            {
                OFFSET 0.0 0.0 -0.41566795110702515
                CHANNELS 3 Zrotation Xrotation Yrotation
                JOINT LeftAnkle
                {
                    OFFSET 0.0 0.0 -0.3428518772125244
                    CHANNELS 3 Zrotation Xrotation Yrotation
                    End Site
                    {
                        OFFSET 0.0 -0.1 0.0
                    }
                }
            }
        }
    }
    JOINT lowerback
    {
        OFFSET 0.0 0.0 0.1
        CHANNELS 3 Zrotation Xrotation Yrotation
        JOINT Chest
        {
            OFFSET 0.0 0.0 0.22092345356941223
            CHANNELS 3 Zrotation Xrotation Yrotation
            JOINT Chest2
            {
                OFFSET 0.0 0.0 0.25406765937805176
                CHANNELS 3 Zrotation Xrotation Yrotation
                JOINT LeftCollar
                {
                    OFFSET 0.1 0.0 0.0
                    CHANNELS 3 Zrotation Xrotation Yrotation
                    JOINT LeftShoulder
                    {
                        OFFSET 0.1212095320224762 0.0 0.0
                        CHANNELS 3 Zrotation Xrotation Yrotation
                        JOINT LeftElbow
                        {
                            OFFSET 0.288747638463974 0.0 0.0
                            CHANNELS 3 Zrotation Xrotation Yrotation
                            JOINT LeftWrist
                            {
                                OFFSET 0.18348661065101624 0.0 0.0
                                CHANNELS 3 Zrotation Xrotation Yrotation
                                End Site
                                {
                                    OFFSET 0.1 0.0 0.0
                                }
                            }
                        }
                    }
                }
                JOINT Neck
                {
                    OFFSET 0.0 0.0 0.1
                    CHANNELS 3 Zrotation Xrotation Yrotation
                    JOINT Head
                    {
                        OFFSET 0.0 0.0 0.13597898185253143
                        CHANNELS 3 Zrotation Xrotation Yrotation
                        End Site
                        {
                            OFFSET 0.0 0.0 0.13313722610473633
                        }
                    }
                }
                JOINT RightCollar
                {
                    OFFSET -0.1 0.0 0.0
                    CHANNELS 3 Zrotation Xrotation Yrotation
                    JOINT RightShoulder
                    {
                        OFFSET -0.1212095320224762 0.0 0.0
                        CHANNELS 3 Zrotation Xrotation Yrotation
                        JOINT RightElbow
                        {
                            OFFSET -0.288747638463974 0.0 0.0
                            CHANNELS 3 Zrotation Xrotation Yrotation
                            JOINT RightWrist
                            {
                                OFFSET -0.18348661065101624 0.0 0.0
                                CHANNELS 3 Zrotation Xrotation Yrotation
                                End Site
                                {
                                    OFFSET -0.1 0.0 0.0
                                }
                            }
                        }
                    }
                }
            }
        }
    }
    JOINT RHipJoint
    {
        OFFSET -0.1 0.0 0.0
        CHANNELS 3 Zrotation Xrotation Yrotation
        JOINT RightHip
        {
            OFFSET -0.08717261254787445 0.0 0.0
            CHANNELS 3 Zrotation Xrotation Yrotation
            JOINT RightKnee
            {
                OFFSET 0.0 0.0 -0.41566795110702515
                CHANNELS 3 Zrotation Xrotation Yrotation
                JOINT RightAnkle
                {
                    OFFSET 0.0 0.0 -0.3428518772125244
                    CHANNELS 3 Zrotation Xrotation Yrotation
                    End Site
                    {
                        OFFSET 0.0 -0.1 0.0
                    }
                }
            }
        }
    }
}
MOTION
Frames: 7
Frame Time: 0.03333333333333333
2.403715825494146e-06 0.8008038997650146 -1.1873133189510554e-05 -105.98501548846262 -70.30981554536707 -106.06759172043395 0.0 0.0 -1.5902773407317588e-15 -0.6440392031243317 -13.339866679706857 0.6189616047016209 -0.11202448632472485 -1.875381741338547 8.766284107939963 -1.5902773407317588e-15 -6.361109362927035e-15 -8.827812596100317e-32 0.0 0.0 -1.5902773407317588e-15 -0.05796140235346943 -1.2051054779558705 1.8735030823396488 2.7544629430957155 -1.0403320962507067e-06 -2.66255877391929e-07 0.0 0.0 -1.5902773407317588e-15 -10.336379219358244 12.597565420839487 79.34375668011425 -24.144037136262035 -2.8613938564903635e-06 -2.763194827616232e-06 -6.3611093629270335e-15 -3.1805546814635168e-15 -1.7655625192200634e-31 0.0 0.0 -1.5902773407317588e-15 -1.1456555269653033 -7.364386278031968 0.33735704394863836 0.0 0.0 -1.5902773407317588e-15 1.2893369385642077 13.920074529745959 -74.96210783880497 21.559320148628217 -1.990247850486026e-06 9.101810740500287e-08 0.0 0.0 0.0 0.0 0.0 -1.5902773407317588e-15 -0.6334173195957548 -12.768668806318178 0.9085004301536347 -0.12395535912217419 -1.8840509272528831 -8.807701377039981 -3.1805546814635168e-15 4.4139062980501586e-32 -1.5902773407317584e-15
2.4233286239905283e-06 0.800803542137146 -1.1753098078770563e-05 -105.67622152505082 -70.0600090091526 -105.81529198427751 2.758691436281349e-33 1.9878466759146977e-16 -1.5902773407317582e-15 -0.5560342800145879 -12.832484889248214 0.4868697644423689 -0.13709883351925647 -2.615339444913752 9.070918216970904 -1.5902773407317584e-15 -6.5598940305185035e-15 -9.103681739728452e-32 2.758691436281349e-33 1.9878466759146977e-16 -1.5902773407317582e-15 -0.05783824554230142 -1.3355830492017946 1.8935241531983893 2.6717149666242883 -1.1667335285305307e-06 -4.3855210961182544e-07 -1.5902773407317584e-15 -6.361109362927033e-15 -3.1805546814635164e-15 -10.05056952836025 12.7479583461148 79.0679078882716 -24.038575764420475 1.3712874902921654e-06 -4.181215967602654e-06 0.0 0.0 0.0 -1.5902773407317584e-15 -6.361109362927033e-15 -3.1805546814635164e-15 -1.2914727255181881 -6.869136624760334 0.4065242807385646 -1.5902773407317584e-15 -6.361109362927033e-15 -3.1805546814635164e-15 0.8032788194930726 13.73974742739245 -74.6043790169018 21.493701401805616 -5.436737739041769e-07 -3.884327814550737e-06 0.0 6.3611093629270335e-15 0.0 2.758691436281349e-33 1.9878466759146977e-16 -1.5902773407317582e-15 -0.5479903881872942 -12.262728506417474 0.8148358806587059 -0.1554632142161613 -2.6280805489343093 -8.900882546375119 7.951386703658791e-16 -6.559894030518502e-15 4.551840869864226e-32
2.8879235287604388e-06 0.8008036613464355 -1.1586125765461475e-05 -106.02325553245348 -70.01544086040843 -106.02551321219048 1.5902773407317588e-15 0.0 0.0 -0.56084058795256 -12.863147718062008 0.32344766204865943 -0.11063754743534722 -2.2200283860751795 9.248389593917846 -1.5902773407317584e-15 6.3611093629270335e-15 8.827812596100317e-32 1.5902773407317588e-15 0.0 0.0 -0.05588194219247407 -1.282243998641965 1.8245194128635522 2.6245164167658808 -5.27545869161012e-06 2.906461065911545e-07 -8.827812596100317e-32 -6.3611093629270335e-15 -1.5902773407317584e-15 -9.469366715473816 12.935372019604417 78.66539010645376 -24.01017846370348 -2.209036531146529e-06 -3.4318808485471745e-06 0.0 0.0 0.0 -8.827812596100317e-32 -6.3611093629270335e-15 -1.5902773407317584e-15 -2.0641257338787966 -6.136342057940957 0.13347302857797191 -8.827812596100317e-32 -6.3611093629270335e-15 -1.5902773407317584e-15 2.2795466384841365 14.15309677434423 -74.28643883825383 21.253594701285234 -5.820115233428136e-06 -3.5845760490729158e-06 3.1805546814635164e-15 3.1805546814635164e-15 -8.827812596100317e-32 1.5902773407317588e-15 0.0 0.0 -0.5541140981255549 -12.31642708698814 0.6043626816011393 -0.12499272338579075 -2.2420372375748086 -8.978855603897278 3.1805546814635164e-15 4.4139062980501586e-32 1.5902773407317582e-15
3.1276917979994323e-06 0.8008033633232117 -1.1222859029658139e-05 -106.12831275324243 -69.69446074984081 -106.16633635955714 0.0 6.361109362927033e-15 0.0 -0.45839589961615296 -12.280210375175825 0.25311374294613204 -0.1242373574949488 -2.9360856076583075 9.35376729924644 0.0 0.0 0.0 0.0 6.361109362927033e-15 0.0 -0.04653588410805974 -1.2401600921323508 2.0627309697872724 2.7003191593156277 1.0856434107255288e-06 3.244108097481312e-07 9.103681739728452e-32 -6.5598940305185035e-15 1.5902773407317584e-15 -9.035886110882167 13.16774805624917 78.00183750407842 -24.386761315625705 -3.4876247139749337e-06 -3.857646334581919e-06 -6.361109362927033e-15 -6.3611093629270335e-15 1.2722218725854067e-14 9.103681739728452e-32 -6.5598940305185035e-15 1.5902773407317584e-15 -2.151719650128966 -6.156013719243721 -0.3937717489047377 9.103681739728452e-32 -6.5598940305185035e-15 1.5902773407317584e-15 0.7838431405695687 14.123901508029876 -73.9934813751328 21.065573045992636 1.566478720928792e-06 -1.7618425171665015e-06 0.0 0.0 -1.2722218725854065e-14 0.0 6.361109362927033e-15 0.0 -0.4661899362164598 -11.998543087419424 0.5980311115433748 -0.12131262134944372 -2.456365388934531 -9.117786893813873 1.5902773407317584e-15 -6.3611093629270335e-15 8.827812596100317e-32
2.873291577998316e-06 0.8008033633232117 -1.1345657185302116e-05 -106.72950749199023 -69.40945830967554 -106.86296502536281 1.590277340731758e-15 -1.9878466759146975e-16 2.758691436281349e-33 -0.5161535505266414 -12.658831205825518 0.28556209596073995 -0.10490262291418533 -2.262289028702117 9.460168850157881 -1.5902773407317584e-15 -6.361109362927033e-15 -3.1805546814635164e-15 1.590277340731758e-15 -1.9878466759146975e-16 2.758691436281349e-33 -0.03684606555143291 -0.9012880040201374 2.0841010752737827 2.6229312148100266 -1.866020956179334e-06 -1.004184081994606e-06 -8.827812596100317e-32 -6.361109362927033e-15 -1.5902773407317582e-15 -10.1957688969505 13.560833571182464 77.7619838526218 -24.525831885428026 1.6471136714046152e-06 5.373146871172852e-06 0.0 -6.3611093629270335e-15 0.0 -8.827812596100317e-32 -6.361109362927033e-15 -1.5902773407317582e-15 -1.8673199926838933 -5.948505969950236 0.13268281813227806 -8.827812596100317e-32 -6.361109362927033e-15 -1.5902773407317582e-15 -1.0770793407256685 13.849825602696765 -73.76568488291981 21.277319562524394 1.0857082900165223e-06 1.9967263605209606e-06 0.0 3.1805546814635168e-15 0.0 1.590277340731758e-15 -1.9878466759146975e-16 2.758691436281349e-33 -0.5284887474261922 -12.48610807895654 0.7742060286250473 -0.0906095401051019 -1.618634156258411 -9.39354748823292 -1.5902773407317588e-15 6.361109362927035e-15 8.827812596100317e-32
2.6285433705197647e-06 0.8008028268814087 -1.1206753697479144e-05 -106.79915488476585 -69.06316115095166 -107.25856585948483 -1.5902773407317584e-15 1.9878466759146977e-16 1.5902773407317584e-15 -0.42900690418462306 -12.35886845700962 0.6604090781784081 -0.09667513974594229 -2.064725074506353 9.245752941567233 -1.590277340731758e-15 -6.559894030518502e-15 3.1805546814635164e-15 -1.5902773407317584e-15 1.9878466759146977e-16 1.5902773407317584e-15 -0.022415955566086374 -0.6411083816931787 2.4229889161277343 2.405270275461356 -4.3575312821363215e-06 7.260248587891162e-07 -1.5902773407317588e-15 0.0 0.0 -8.520442844550868 13.477312830216484 76.93994642874993 -24.555101574383592 -2.647279010108588e-06 1.2321019856721087e-06 0.0 3.1805546814635176e-15 0.0 -1.5902773407317588e-15 0.0 0.0 -1.6884915741893938 -6.477307009711789 0.7856645430134881 -1.5902773407317588e-15 0.0 0.0 -2.3983292122485644 13.787345759105277 -73.36356951461744 21.253642125983134 -7.092239441703279e-07 1.5680626572714641e-06 0.0 6.3611093629270335e-15 0.0 -1.5902773407317584e-15 1.9878466759146977e-16 1.5902773407317584e-15 -0.44631087059129004 -12.29078768275541 0.9284173704368137 -0.06837830893811299 -1.3008212825530234 -8.741812295209389 -1.5902773407317584e-15 -6.3611093629270335e-15 -8.827812596100317e-32
2.869721811293857e-06 0.8008028268814087 -1.1064988939324394e-05 -106.76469338862293 -68.66084665184103 -107.32475099503236 0.0 -5.9635400277440935e-15 0.0 -0.4015681323704414 -12.215913584091146 0.6602761594603015 -0.06680341201817526 -1.4860571024028693 9.462342442000674 0.0 0.0 -6.3611093629270335e-15 0.0 -5.9635400277440935e-15 0.0 -0.020369859499802905 -0.6142053385679281 2.614814622418183 2.0911194621620934 -1.6820425049448235e-06 1.511363876421341e-07 1.5902773407317584e-15 -6.1623246953355635e-15 -1.5902773407317584e-15 -7.52844195599232 13.502595075399581 76.4083469541114 -24.437007154362533 -5.23280574089265e-06 -6.44977497131932e-07 1.2722218725854067e-14 -7.062250076880254e-31 -6.3611093629270335e-15 1.5902773407317584e-15 -6.1623246953355635e-15 -1.5902773407317584e-15 -0.9604219549075214 -6.862674914231409 0.7279510483921193 1.5902773407317584e-15 -6.1623246953355635e-15 -1.5902773407317584e-15 -2.7185813347027077 13.839537669512508 -73.54664656651593 21.075752579483073 4.797236146531729e-06 -3.6189071097106806e-07 3.1805546814635168e-15 -1.7655625192200634e-31 -6.3611093629270335e-15 0.0 -5.9635400277440935e-15 0.0 -0.43179028431374933 -12.51587486263606 0.61114553993921 -0.02290246215026703 -0.5068109176297193 -8.172997665024905 1.5902773407317588e-15 -1.987846675914698e-16 3.1805546814635176e-15
